ply
format ascii 1.0
element vertex 16
property float32 x
property float32 y
property float32 z
element face 32
property list uchar uint vertex_indices
end_header
0.3 0.3 -0.3
0.3 0.3 0.3
-0.3 0.3 0.3
-0.3 0.3 -0.3
0.3 -0.3 -0.3
0.3 -0.3 0.3
-0.3 -0.3 0.3
-0.3 -0.3 -0.3
0.6 0.6 -0.6
0.6 0.6 0.6
-0.6 0.6 0.6
-0.6 0.6 -0.6
0.6 -0.6 -0.6
0.6 -0.6 0.6
-0.6 -0.6 0.6
-0.6 -0.6 -0.6
3 0 1 2
3 0 2 3
3 0 4 1
3 1 4 5
3 1 5 6
3 6 2 1
3 6 5 4
3 4 7 6
3 6 3 2
3 3 6 7
3 0 3 7
3 0 7 4
3 8 9 10
3 8 10 11
3 8 12 9
3 9 12 13
3 9 13 14
3 14 10 9
3 14 13 12
3 12 15 14
3 14 11 10
3 11 14 15
3 8 11 15
3 8 15 12
3 0 0 8
3 1 1 9
3 2 2 10
3 3 3 11
3 4 4 12
3 5 5 13
3 6 6 14
3 7 7 15
